v 4.17825 0.004411221 -5.000159
v 4.17825 0.004411221 4.999841
v 4.999365 0.004411221 -5.000159
v 4.999365 0.004411221 4.999841
v -5.000635 0.004411221 -5.000159
v -5.000635 0.004411221 4.999841
v -4.179521 0.004411221 -5.000159
v -4.179521 0.004411221 4.999841
v -5.000635 -1.070858 4.999841
v 4.999365 -1.070858 4.999841
v -5.000635 0.004411221 4.999841
v 4.999365 0.004411221 4.999841
v -4.179521 0.004411221 4.999841
v -5.000635 0.004411221 4.999841
v 4.999365 0.004411221 4.999841
v 4.17825 0.004411221 4.999841
v -3.456158 0.1999145 4.999841
v -4.179521 0.1999145 4.999841
v -3.456158 0.1021628 4.999841
v -4.179521 0.004411221 4.999841
v 4.17825 0.004411221 4.999841
v 3.454887 0.1021628 4.999841
v 4.17825 0.1999145 4.999841
v 3.454887 0.1999145 4.999841
v -5.000635 0.004411221 -5.000159
v -5.000635 -1.070858 -5.000159
v -5.000635 0.004411221 4.999841
v -5.000635 -1.070858 4.999841
v 4.999365 -1.070858 -5.000159
v 4.500832 -1.070858 -5.000159
v 4.999365 0.004411221 -5.000159
v -4.502101 -1.070858 -5.000159
v -5.000635 -1.070858 -5.000159
v -5.000635 0.004411221 -5.000159
v 4.17825 0.004411221 -5.000159
v 4.999365 0.004411221 -5.000159
v -5.000635 0.004411221 -5.000159
v -4.179521 0.004411221 -5.000159
v 3.454887 0.1999145 -5.000159
v 4.17825 0.1999145 -5.000159
v 3.454887 0.1021628 -5.000159
v 4.17825 0.004411221 -5.000159
v -4.179521 0.004411221 -5.000159
v -3.456158 0.1021628 -5.000159
v -4.179521 0.1999145 -5.000159
v -3.456158 0.1999145 -5.000159
v 4.999365 -1.070858 -5.000159
v 4.999365 0.004411221 -5.000159
v 4.999365 -1.070858 4.999841
v 4.999365 0.004411221 4.999841
v -5.000635 -1.070858 4.999841
v -5.000635 -1.070858 -5.000159
v 4.999365 -1.070858 4.999841
v -4.502101 -1.070858 -5.000159
v 4.500832 -1.070858 -5.000159
v 4.999365 -1.070858 -5.000159
v 4.178466 0.004572868 5
v 4.178466 0.004572868 15
v 4.99958 0.004572868 5
v 4.99958 0.004572868 15
v -5.00042 0.004572868 5
v -5.00042 0.004572868 15
v -4.179305 0.004572868 5
v -4.179305 0.004572868 15
v -5.00042 -1.070696 15
v 4.99958 -1.070696 15
v -5.00042 0.004572868 15
v 4.99958 0.004572868 15
v -4.179305 0.004572868 15
v -5.00042 0.004572868 15
v 4.99958 0.004572868 15
v 4.178466 0.004572868 15
v -3.455943 0.2000761 15
v -4.179305 0.2000761 15
v -3.455943 0.1023245 15
v -4.179305 0.004572868 15
v 4.178466 0.004572868 15
v 3.455103 0.1023245 15
v 4.178466 0.2000761 15
v 3.455103 0.2000761 15
v -5.00042 0.004572868 5
v -5.00042 -1.070696 5
v -5.00042 0.004572868 15
v -5.00042 -1.070696 15
v 4.99958 -1.070696 5
v 4.501047 -1.070696 5
v 4.99958 0.004572868 5
v -4.501886 -1.070696 5
v -5.00042 -1.070696 5
v -5.00042 0.004572868 5
v 4.178466 0.004572868 5
v 4.99958 0.004572868 5
v -5.00042 0.004572868 5
v -4.179305 0.004572868 5
v 3.455103 0.2000761 5
v 4.178466 0.2000761 5
v 3.455103 0.1023245 5
v 4.178466 0.004572868 5
v -4.179305 0.004572868 5
v -3.455943 0.1023245 5
v -4.179305 0.2000761 5
v -3.455943 0.2000761 5
v 4.99958 -1.070696 5
v 4.99958 0.004572868 5
v 4.99958 -1.070696 15
v 4.99958 0.004572868 15
v -5.00042 -1.070696 15
v -5.00042 -1.070696 5
v 4.99958 -1.070696 15
v -4.501886 -1.070696 5
v 4.501047 -1.070696 5
v 4.99958 -1.070696 5
v 4.183473 -1.192093E-07 15
v 4.190459 -1.192093E-07 15.10658
v 5 -1.192093E-07 15
v 4.211296 -1.192093E-07 15.21133
v 4.245628 -1.192093E-07 15.31247
v 4.292868 -1.192093E-07 15.40826
v 4.352206 -1.192093E-07 15.49707
v 4.422628 -1.192093E-07 15.57737
v 4.502931 -1.192093E-07 15.64779
v 4.591737 -1.192093E-07 15.70713
v 4.687529 -1.192093E-07 15.75437
v 4.788667 -1.192093E-07 15.7887
v 4.893422 -1.192093E-07 15.80954
v 5 -1.192093E-07 15.81653
v -5 -1.192093E-07 15
v -4.914449 -1.192093E-07 16.30526
v -4.183474 -1.192093E-07 15
v -4.659258 -1.192093E-07 17.58819
v -4.238795 -1.192093E-07 18.82683
v -4.104908 -1.192093E-07 16.19868
v -3.660254 -1.192093E-07 20
v -3.870555 -1.192093E-07 17.37686
v -3.484423 -1.192093E-07 18.51436
v -2.933533 -1.192093E-07 21.08761
v -2.953121 -1.192093E-07 19.59174
v -2.285739 -1.192093E-07 20.59054
v -2.071068 -1.192093E-07 22.07107
v -1.493697 -1.192093E-07 21.4937
v -1.087614 -1.192093E-07 22.93353
v -0.5905442 -1.192093E-07 22.28574
v 0 -1.192093E-07 23.66025
v 0.4082632 -1.192093E-07 22.95312
v 1.173166 -1.192093E-07 24.2388
v 1.485636 -1.192093E-07 23.48442
v 2.411809 -1.192093E-07 24.65926
v 2.623142 -1.192093E-07 23.87056
v 3.694737 -1.192093E-07 24.91445
v 3.801316 -1.192093E-07 24.10491
v 5 -1.192093E-07 25
v 5 -1.192093E-07 24.18347
v 3.451351 0.1999999 15
v 4.183473 0.1999999 15
v 3.451351 0.0999999 15
v 4.183473 -1.192093E-07 15
v -3.451351 0.0999999 15
v -4.183474 -1.192093E-07 15
v 5 -1.192093E-07 15
v -4.183474 0.1999999 15
v -3.451351 0.1999999 15
v -5 -1.066209 15
v -5 -1.192093E-07 15
v 5 -1.066209 15
v 5 -1.066209 15
v 5 -1.192093E-07 15
v 5 -1.066209 25
v 5 -1.192093E-07 15.81653
v 5 0.1999999 15.81653
v 5 0.0999999 16.54865
v 5 0.1999999 16.54865
v 5 0.0999999 23.45135
v 5 0.1999999 23.45135
v 5 -1.192093E-07 24.18347
v 5 -1.192093E-07 25
v 5 0.1999999 24.18347
v 3.694737 -1.066209 24.91445
v 5 -1.066209 25
v 3.694737 -1.192093E-07 24.91445
v 5 -1.192093E-07 25
v 2.411809 -1.066209 24.65926
v 3.694737 -1.066209 24.91445
v 2.411809 -1.192093E-07 24.65926
v 3.694737 -1.192093E-07 24.91445
v 1.173166 -1.066209 24.2388
v 2.411809 -1.066209 24.65926
v 1.173166 -1.192093E-07 24.2388
v 2.411809 -1.192093E-07 24.65926
v 0 -1.066209 23.66025
v 1.173166 -1.066209 24.2388
v 0 -1.192093E-07 23.66025
v 1.173166 -1.192093E-07 24.2388
v -1.087614 -1.066209 22.93353
v 0 -1.066209 23.66025
v -1.087614 -1.192093E-07 22.93353
v 0 -1.192093E-07 23.66025
v -2.071068 -1.066209 22.07107
v -1.087614 -1.066209 22.93353
v -2.071068 -1.192093E-07 22.07107
v -1.087614 -1.192093E-07 22.93353
v -2.933533 -1.192093E-07 21.08761
v -2.933533 -1.066209 21.08761
v -2.071068 -1.192093E-07 22.07107
v -2.071068 -1.066209 22.07107
v -3.660254 -1.192093E-07 20
v -3.660254 -1.066209 20
v -2.933533 -1.192093E-07 21.08761
v -2.933533 -1.066209 21.08761
v -4.238795 -1.192093E-07 18.82683
v -4.238795 -1.066209 18.82683
v -3.660254 -1.192093E-07 20
v -3.660254 -1.066209 20
v -4.659258 -1.192093E-07 17.58819
v -4.659258 -1.066209 17.58819
v -4.238795 -1.192093E-07 18.82683
v -4.238795 -1.066209 18.82683
v -4.914449 -1.192093E-07 16.30526
v -4.914449 -1.066209 16.30526
v -4.659258 -1.192093E-07 17.58819
v -4.659258 -1.066209 17.58819
v -5 -1.192093E-07 15
v -5 -1.066209 15
v -4.914449 -1.192093E-07 16.30526
v -4.914449 -1.066209 16.30526
v -5 -1.066209 15
v 5 -1.066209 15
v -4.914449 -1.066209 16.30526
v -4.659258 -1.066209 17.58819
v -4.238795 -1.066209 18.82683
v -3.660254 -1.066209 20
v -2.933533 -1.066209 21.08761
v -2.071068 -1.066209 22.07107
v -1.087614 -1.066209 22.93353
v 0 -1.066209 23.66025
v 1.173166 -1.066209 24.2388
v 2.411809 -1.066209 24.65926
v 3.694737 -1.066209 24.91445
v 5 -1.066209 25
v 4.999997 -1.192093E-07 15.81653
v 5.106575 -1.192093E-07 15.80954
v 4.999996 -1.192093E-07 15
v 5.211329 -1.192093E-07 15.78871
v 5.312468 -1.192093E-07 15.75437
v 5.408259 -1.192093E-07 15.70713
v 5.497066 -1.192093E-07 15.6478
v 5.577368 -1.192093E-07 15.57737
v 5.64779 -1.192093E-07 15.49707
v 5.707129 -1.192093E-07 15.40826
v 5.754368 -1.192093E-07 15.31247
v 5.7887 -1.192093E-07 15.21133
v 5.809537 -1.192093E-07 15.10658
v 5.816523 -1.192093E-07 15
v 5.000004 -1.192093E-07 25
v 6.305266 -1.192093E-07 24.91445
v 5.000004 -1.192093E-07 24.18348
v 7.588195 -1.192093E-07 24.65926
v 8.826838 -1.192093E-07 24.23879
v 6.198688 -1.192093E-07 24.10491
v 10 -1.192093E-07 23.66025
v 7.376862 -1.192093E-07 23.87056
v 8.514366 -1.192093E-07 23.48442
v 11.08762 -1.192093E-07 22.93353
v 9.591738 -1.192093E-07 22.95312
v 10.59055 -1.192093E-07 22.28574
v 12.07107 -1.192093E-07 22.07106
v 11.4937 -1.192093E-07 21.49369
v 12.93353 -1.192093E-07 21.08761
v 12.28574 -1.192093E-07 20.59054
v 13.66025 -1.192093E-07 19.99999
v 12.95312 -1.192093E-07 19.59173
v 14.23879 -1.192093E-07 18.82683
v 13.48442 -1.192093E-07 18.51436
v 14.65926 -1.192093E-07 17.58818
v 13.87055 -1.192093E-07 17.37685
v 14.91445 -1.192093E-07 16.30526
v 14.1049 -1.192093E-07 16.19868
v 15 -1.192093E-07 14.99999
v 14.18347 -1.192093E-07 14.99999
v 4.999997 0.1999999 16.54865
v 4.999997 0.1999999 15.81653
v 4.999997 0.0999999 16.54865
v 4.999997 -1.192093E-07 15.81653
v 5.000003 0.0999999 23.45135
v 5.000004 -1.192093E-07 24.18348
v 4.999996 -1.192093E-07 15
v 5.000004 0.1999999 24.18348
v 5.000003 0.1999999 23.45135
v 5.000004 -1.066209 25
v 5.000004 -1.192093E-07 25
v 4.999996 -1.066209 15
v 4.999996 -1.066209 15
v 4.999996 -1.192093E-07 15
v 15 -1.066209 14.99999
v 5.816523 -1.192093E-07 15
v 5.816523 0.1999999 15
v 6.548645 0.0999999 15
v 6.548645 0.1999999 15
v 13.45135 0.0999999 15
v 13.45135 0.1999999 15
v 14.18347 -1.192093E-07 14.99999
v 15 -1.192093E-07 14.99999
v 14.18347 0.1999999 14.99999
v 14.91445 -1.066209 16.30526
v 15 -1.066209 14.99999
v 14.91445 -1.192093E-07 16.30526
v 15 -1.192093E-07 14.99999
v 14.65926 -1.066209 17.58818
v 14.91445 -1.066209 16.30526
v 14.65926 -1.192093E-07 17.58818
v 14.91445 -1.192093E-07 16.30526
v 14.23879 -1.066209 18.82683
v 14.65926 -1.066209 17.58818
v 14.23879 -1.192093E-07 18.82683
v 14.65926 -1.192093E-07 17.58818
v 13.66025 -1.066209 19.99999
v 14.23879 -1.066209 18.82683
v 13.66025 -1.192093E-07 19.99999
v 14.23879 -1.192093E-07 18.82683
v 12.93353 -1.066209 21.08761
v 13.66025 -1.066209 19.99999
v 12.93353 -1.192093E-07 21.08761
v 13.66025 -1.192093E-07 19.99999
v 12.07107 -1.066209 22.07106
v 12.93353 -1.066209 21.08761
v 12.07107 -1.192093E-07 22.07106
v 12.93353 -1.192093E-07 21.08761
v 11.08762 -1.192093E-07 22.93353
v 11.08762 -1.066209 22.93353
v 12.07107 -1.192093E-07 22.07106
v 12.07107 -1.066209 22.07106
v 10 -1.192093E-07 23.66025
v 10 -1.066209 23.66025
v 11.08762 -1.192093E-07 22.93353
v 11.08762 -1.066209 22.93353
v 8.826838 -1.192093E-07 24.23879
v 8.826838 -1.066209 24.23879
v 10 -1.192093E-07 23.66025
v 10 -1.066209 23.66025
v 7.588195 -1.192093E-07 24.65926
v 7.588195 -1.066209 24.65926
v 8.826838 -1.192093E-07 24.23879
v 8.826838 -1.066209 24.23879
v 6.305266 -1.192093E-07 24.91445
v 6.305266 -1.066209 24.91445
v 7.588195 -1.192093E-07 24.65926
v 7.588195 -1.066209 24.65926
v 5.000004 -1.192093E-07 25
v 5.000004 -1.066209 25
v 6.305266 -1.192093E-07 24.91445
v 6.305266 -1.066209 24.91445
v 5.000004 -1.066209 25
v 4.999996 -1.066209 15
v 6.305266 -1.066209 24.91445
v 7.588195 -1.066209 24.65926
v 8.826838 -1.066209 24.23879
v 10 -1.066209 23.66025
v 11.08762 -1.066209 22.93353
v 12.07107 -1.066209 22.07106
v 12.93353 -1.066209 21.08761
v 13.66025 -1.066209 19.99999
v 14.23879 -1.066209 18.82683
v 14.65926 -1.066209 17.58818
v 14.91445 -1.066209 16.30526
v 15 -1.066209 14.99999
v 4.999982 0 5.000006
v 4.999997 0 15.00001
v 4.999982 2.502444 5.000006
v 14.99998 2.502444 4.99999
v 15 0 14.99999
v 14.99998 0 4.99999
v 5.821112 0 15
v 5.821096 2.502444 5.000005
v 4.999997 0 15.00001
v 4.999982 2.502444 5.000006
v 15 0 14.99999
v 14.99998 2.502444 4.99999
v 14.17888 0 14.99999
v 14.17887 2.502444 4.999991
v 14.99998 0 4.99999
v 4.999982 0 5.000006
v 14.99998 2.502444 4.99999
v 4.999982 2.502444 5.000006
v 14.17887 2.502444 4.999991
v 14.99998 2.502444 4.99999
v 4.999982 2.502444 5.000006
v 5.821096 2.502444 5.000005
v 13.4555 2.697947 4.999993
v 14.17887 2.697947 4.999991
v 13.4555 2.600195 4.999993
v 14.17887 2.502444 4.999991
v 5.821096 2.502444 5.000005
v 6.544459 2.600195 5.000004
v 5.821096 2.697947 5.000005
v 6.544459 2.697947 5.000004
v 5.821136 2.504878 5.000025
v 5.821121 2.504878 -4.999975
v 5.000022 2.504878 5.000026
v 5.000007 2.504878 -4.999974
v 15.00002 2.504878 5.00001
v 15.00001 2.504878 -4.99999
v 14.17891 2.504878 5.000012
v 14.17889 2.504878 -4.999989
v 15.00001 1.429609 -4.99999
v 5.000007 1.429609 -4.999974
v 15.00001 2.504878 -4.99999
v 5.000007 2.504878 -4.999974
v 14.17889 2.504878 -4.999989
v 15.00001 2.504878 -4.99999
v 5.000007 2.504878 -4.999974
v 5.821121 2.504878 -4.999975
v 13.45553 2.700381 -4.999987
v 14.17889 2.700381 -4.999989
v 13.45553 2.602629 -4.999987
v 14.17889 2.504878 -4.999989
v 5.821121 2.504878 -4.999975
v 6.544484 2.602629 -4.999976
v 5.821121 2.700381 -4.999975
v 6.544484 2.700381 -4.999976
v 15.00002 2.504878 5.00001
v 15.00002 1.429609 5.00001
v 15.00001 2.504878 -4.99999
v 15.00001 1.429609 -4.99999
v 5.000022 1.429609 5.000026
v 5.498555 1.429609 5.000025
v 5.000022 2.504878 5.000026
v 14.50149 1.429609 5.000011
v 15.00002 1.429609 5.00001
v 15.00002 2.504878 5.00001
v 5.821136 2.504878 5.000025
v 5.000022 2.504878 5.000026
v 15.00002 2.504878 5.00001
v 14.17891 2.504878 5.000012
v 6.544499 2.700381 5.000023
v 5.821136 2.700381 5.000025
v 6.544499 2.602629 5.000023
v 5.821136 2.504878 5.000025
v 14.17891 2.504878 5.000012
v 13.45555 2.602629 5.000013
v 14.17891 2.700381 5.000012
v 13.45555 2.700381 5.000013
v 5.000022 1.429609 5.000026
v 5.000022 2.504878 5.000026
v 5.000007 1.429609 -4.999974
v 5.000007 2.504878 -4.999974
v 15.00001 1.429609 -4.99999
v 15.00002 1.429609 5.00001
v 5.000007 1.429609 -4.999974
v 14.50149 1.429609 5.000011
v 5.498555 1.429609 5.000025
v 5.000022 1.429609 5.000026
vt 36.15482 0.001201516 0
vt 36.15482 39.37008 0
vt 39.37008 0.001201516 0
vt 39.37008 39.37008 0
vt 0.001201516 0.001201516 0
vt 0.001201516 39.37008 0
vt 3.214056 0.001201516 0
vt 3.214056 39.37008 0
vt 0.001201516 15.48634 0
vt -39.37008 15.48634 0
vt 0.001201516 19.68444 0
vt -39.37008 19.68444 0
vt -3.214056 19.68444 0
vt 0.001201516 19.68444 0
vt -39.37008 19.68444 0
vt -36.15482 19.68444 0
vt -6.097694 20.47263 0
vt -3.214056 20.47263 0
vt -6.097694 20.07854 0
vt -3.214056 19.68444 0
vt -36.15482 19.68444 0
vt -33.27359 20.07854 0
vt -36.15482 20.47263 0
vt -33.27359 20.47263 0
vt 0.001201516 19.68444 0
vt 0.001201516 15.48634 0
vt -39.37008 19.68444 0
vt -39.37008 15.48634 0
vt 39.37008 15.48634 0
vt 37.402 15.48634 0
vt 39.37008 19.68444 0
vt 1.969285 15.48634 0
vt 0.001201516 15.48634 0
vt 0.001201516 19.68444 0
vt 36.15482 19.68444 0
vt 39.37008 19.68444 0
vt 0.001201516 19.68444 0
vt 3.214056 19.68444 0
vt 33.27359 20.47263 0
vt 36.15482 20.47263 0
vt 33.27359 20.07854 0
vt 36.15482 19.68444 0
vt 3.214056 19.68444 0
vt 6.097694 20.07854 0
vt 3.214056 20.47263 0
vt 6.097694 20.47263 0
vt 0.001201516 15.48634 0
vt 0.001201516 19.68444 0
vt 39.37008 15.48634 0
vt 39.37008 19.68444 0
vt 0.001201516 39.37008 0
vt 0.001201516 0.001201516 0
vt -39.37008 39.37008 0
vt -1.969285 0.001201516 0
vt -37.402 0.001201516 0
vt -39.37008 0.001201516 0
vt 36.15482 0.001201516 0
vt 36.15482 39.37008 0
vt 39.37008 0.001201516 0
vt 39.37008 39.37008 0
vt 0.001201516 0.001201516 0
vt 0.001201516 39.37008 0
vt 3.214056 0.001201516 0
vt 3.214056 39.37008 0
vt 0.001201516 15.48634 0
vt -39.37008 15.48634 0
vt 0.001201516 19.68444 0
vt -39.37008 19.68444 0
vt -3.214056 19.68444 0
vt 0.001201516 19.68444 0
vt -39.37008 19.68444 0
vt -36.15482 19.68444 0
vt -6.097694 20.47263 0
vt -3.214056 20.47263 0
vt -6.097694 20.07854 0
vt -3.214056 19.68444 0
vt -36.15482 19.68444 0
vt -33.27359 20.07854 0
vt -36.15482 20.47263 0
vt -33.27359 20.47263 0
vt 0.001201516 19.68444 0
vt 0.001201516 15.48634 0
vt -39.37008 19.68444 0
vt -39.37008 15.48634 0
vt 39.37008 15.48634 0
vt 37.402 15.48634 0
vt 39.37008 19.68444 0
vt 1.969285 15.48634 0
vt 0.001201516 15.48634 0
vt 0.001201516 19.68444 0
vt 36.15482 19.68444 0
vt 39.37008 19.68444 0
vt 0.001201516 19.68444 0
vt 3.214056 19.68444 0
vt 33.27359 20.47263 0
vt 36.15482 20.47263 0
vt 33.27359 20.07854 0
vt 36.15482 19.68444 0
vt 3.214056 19.68444 0
vt 6.097694 20.07854 0
vt 3.214056 20.47263 0
vt 6.097694 20.47263 0
vt 0.001201516 15.48634 0
vt 0.001201516 19.68444 0
vt 39.37008 15.48634 0
vt 39.37008 19.68444 0
vt 0.001201516 39.37008 0
vt 0.001201516 0.001201516 0
vt -39.37008 39.37008 0
vt -1.969285 0.001201516 0
vt -37.402 0.001201516 0
vt -39.37008 0.001201516 0
vt 36.15541 0 0
vt 36.18291 0.4195987 0
vt 39.37008 0 0
vt 36.26495 0.8320179 0
vt 36.40011 1.230201 0
vt 36.58609 1.607335 0
vt 36.81971 1.956967 0
vt 37.09696 2.273115 0
vt 37.41311 2.55037 0
vt 37.76274 2.783986 0
vt 38.13988 2.969968 0
vt 38.53806 3.105133 0
vt 38.95048 3.187169 0
vt 39.37008 3.214671 0
vt 0 0 0
vt 0.3368165 5.138826 0
vt 3.21467 0 0
vt 1.341503 10.18973 0
vt 2.996869 15.06628 0
vt 3.523985 4.719228 0
vt 5.27459 19.68504 0
vt 4.446636 9.357708 0
vt 5.966837 13.83608 0
vt 8.135695 23.96699 0
vt 8.058577 18.0777 0
vt 10.68606 22.01002 0
vt 11.53123 27.83885 0
vt 13.80434 25.56573 0
vt 15.40309 31.23438 0
vt 17.36006 28.68401 0
vt 19.68504 34.09549 0
vt 21.29238 31.3115 0
vt 24.3038 36.37321 0
vt 25.534 33.40324 0
vt 29.18035 38.02858 0
vt 30.01237 34.92344 0
vt 34.23125 39.03326 0
vt 34.65085 35.8461 0
vt 39.37008 39.37008 0
vt 39.37008 36.15541 0
vt 33.27304 4.985074 0
vt 36.15541 4.985074 0
vt 33.27304 4.591372 0
vt 36.15541 4.197672 0
vt 6.097044 4.591372 0
vt 3.21467 4.197672 0
vt 39.37008 4.197672 0
vt 3.21467 4.985074 0
vt 6.097044 4.985074 0
vt 0 0 0
vt 0 4.197672 0
vt 39.37008 0 0
vt 1.75102E-07 -2.649361E-06 0
vt 1.75102E-07 4.197669 0
vt 39.37008 -2.649361E-06 0
vt 3.214671 4.197669 0
vt 3.214671 4.985071 0
vt 6.097044 4.59137 0
vt 6.097044 4.985071 0
vt 33.27304 4.59137 0
vt 33.27304 4.985071 0
vt 36.15541 4.197669 0
vt 39.37008 4.197669 0
vt 36.15541 4.985071 0
vt -36.71086 0 0
vt -41.86071 0 0
vt -36.71086 4.197672 0
vt -41.86071 4.197672 0
vt -36.03867 0 0
vt -41.18852 0 0
vt -36.03867 4.197672 0
vt -41.18852 4.197672 0
vt -34.70579 0 0
vt -39.85564 0 0
vt -34.70579 4.197672 0
vt -39.85564 4.197672 0
vt -32.73502 0 0
vt -37.88488 0 0
vt -32.73502 4.197672 0
vt -37.88488 4.197672 0
vt -30.1601 0 0
vt -35.30995 0 0
vt -30.1601 4.197672 0
vt -35.30995 4.197672 0
vt -27.02507 0 0
vt -32.17492 0 0
vt -27.02507 4.197672 0
vt -32.17492 4.197672 0
vt -23.38357 4.197672 0
vt -23.38357 0 0
vt -28.53342 4.197672 0
vt -28.53342 0 0
vt -19.29792 4.197672 0
vt -19.29792 0 0
vt -24.44777 4.197672 0
vt -24.44777 0 0
vt -14.83801 4.197672 0
vt -14.83801 0 0
vt -19.98787 4.197672 0
vt -19.98787 0 0
vt -10.08017 4.197672 0
vt -10.08017 0 0
vt -15.23002 4.197672 0
vt -15.23002 0 0
vt -5.105795 4.197672 0
vt -5.105795 0 0
vt -10.25565 4.197672 0
vt -10.25565 0 0
vt 0 4.197672 0
vt 0 0 0
vt -5.149853 4.197672 0
vt -5.149853 0 0
vt 0 0 0
vt -39.37008 0 0
vt -0.3368165 5.138826 0
vt -1.341503 10.18973 0
vt -2.996869 15.06628 0
vt -5.27459 19.68504 0
vt -8.135695 23.96699 0
vt -11.53123 27.83885 0
vt -15.40309 31.23438 0
vt -19.68504 34.09549 0
vt -24.3038 36.37321 0
vt -29.18035 38.02858 0
vt -34.23125 39.03326 0
vt -39.37008 39.37008 0
vt 36.15541 0 0
vt 36.18291 0.4195987 0
vt 39.37008 0 0
vt 36.26495 0.8320179 0
vt 36.40011 1.230201 0
vt 36.58609 1.607335 0
vt 36.81971 1.956967 0
vt 37.09696 2.273115 0
vt 37.41311 2.55037 0
vt 37.76274 2.783986 0
vt 38.13988 2.969968 0
vt 38.53806 3.105133 0
vt 38.95048 3.187169 0
vt 39.37008 3.214671 0
vt 0 0 0
vt 0.3368165 5.138826 0
vt 3.21467 0 0
vt 1.341503 10.18973 0
vt 2.996869 15.06628 0
vt 3.523985 4.719228 0
vt 5.27459 19.68504 0
vt 4.446636 9.357708 0
vt 5.966837 13.83608 0
vt 8.135695 23.96699 0
vt 8.058577 18.0777 0
vt 10.68606 22.01002 0
vt 11.53123 27.83885 0
vt 13.80434 25.56573 0
vt 15.40309 31.23438 0
vt 17.36006 28.68401 0
vt 19.68504 34.09549 0
vt 21.29238 31.3115 0
vt 24.3038 36.37321 0
vt 25.534 33.40324 0
vt 29.18035 38.02858 0
vt 30.01237 34.92344 0
vt 34.23125 39.03326 0
vt 34.65085 35.8461 0
vt 39.37008 39.37008 0
vt 39.37008 36.15541 0
vt 33.27304 4.985074 0
vt 36.15541 4.985074 0
vt 33.27304 4.591372 0
vt 36.15541 4.197672 0
vt 6.097044 4.591372 0
vt 3.21467 4.197672 0
vt 39.37008 4.197672 0
vt 3.21467 4.985074 0
vt 6.097044 4.985074 0
vt 0 0 0
vt 0 4.197672 0
vt 39.37008 0 0
vt 1.75102E-07 -2.649361E-06 0
vt 1.75102E-07 4.197669 0
vt 39.37008 -2.649361E-06 0
vt 3.214671 4.197669 0
vt 3.214671 4.985071 0
vt 6.097044 4.59137 0
vt 6.097044 4.985071 0
vt 33.27304 4.59137 0
vt 33.27304 4.985071 0
vt 36.15541 4.197669 0
vt 39.37008 4.197669 0
vt 36.15541 4.985071 0
vt -36.71086 0 0
vt -41.86071 0 0
vt -36.71086 4.197672 0
vt -41.86071 4.197672 0
vt -36.03867 0 0
vt -41.18852 0 0
vt -36.03867 4.197672 0
vt -41.18852 4.197672 0
vt -34.70579 0 0
vt -39.85564 0 0
vt -34.70579 4.197672 0
vt -39.85564 4.197672 0
vt -32.73502 0 0
vt -37.88488 0 0
vt -32.73502 4.197672 0
vt -37.88488 4.197672 0
vt -30.1601 0 0
vt -35.30995 0 0
vt -30.1601 4.197672 0
vt -35.30995 4.197672 0
vt -27.02507 0 0
vt -32.17492 0 0
vt -27.02507 4.197672 0
vt -32.17492 4.197672 0
vt -23.38357 4.197672 0
vt -23.38357 0 0
vt -28.53342 4.197672 0
vt -28.53342 0 0
vt -19.29792 4.197672 0
vt -19.29792 0 0
vt -24.44777 4.197672 0
vt -24.44777 0 0
vt -14.83801 4.197672 0
vt -14.83801 0 0
vt -19.98787 4.197672 0
vt -19.98787 0 0
vt -10.08017 4.197672 0
vt -10.08017 0 0
vt -15.23002 4.197672 0
vt -15.23002 0 0
vt -5.105795 4.197672 0
vt -5.105795 0 0
vt -10.25565 4.197672 0
vt -10.25565 0 0
vt 0 4.197672 0
vt 0 0 0
vt -5.149853 4.197672 0
vt -5.149853 0 0
vt 0 0 0
vt -39.37008 0 0
vt -0.3368165 5.138826 0
vt -1.341503 10.18973 0
vt -2.996869 15.06628 0
vt -5.27459 19.68504 0
vt -8.135695 23.96699 0
vt -11.53123 27.83885 0
vt -15.40309 31.23438 0
vt -19.68504 34.09549 0
vt -24.3038 36.37321 0
vt -29.18035 38.02858 0
vt -34.23125 39.03326 0
vt -39.37008 39.37008 0
vt 39.37125 0.0005878371 0
vt 0.0005878371 0.0005878371 0
vt 39.37125 9.842643 0
vt -39.37008 9.842643 0
vt 0.0005878371 0.0005878371 0
vt -39.37008 0.0005878371 0
vt 36.15498 0.0005878371 0
vt 36.15498 40.58194 0
vt 39.37125 0.0005878371 0
vt 39.37125 40.58194 0
vt 0.0005878371 0.0005878371 0
vt 0.0005878371 40.58194 0
vt 3.21442 0.0005878371 0
vt 3.21442 40.58194 0
vt 0.0005878371 0.0005878371 0
vt -39.37008 0.0005878371 0
vt 0.0005878371 9.842643 0
vt -39.37008 9.842643 0
vt -3.21569 9.842643 0
vt 0.0005878371 9.842643 0
vt -39.37008 9.842643 0
vt -36.15625 9.842643 0
vt -6.096888 10.6302 0
vt -3.21569 10.6302 0
vt -6.096888 10.23642 0
vt -3.21569 9.842643 0
vt -36.15625 9.842643 0
vt -33.2726 10.23642 0
vt -36.15625 10.6302 0
vt -33.2726 10.6302 0
vt 36.15482 0.001201516 0
vt 36.15482 39.37008 0
vt 39.37008 0.001201516 0
vt 39.37008 39.37008 0
vt 0.001201516 0.001201516 0
vt 0.001201516 39.37008 0
vt 3.214056 0.001201516 0
vt 3.214056 39.37008 0
vt 0.001201516 15.48634 0
vt -39.37008 15.48634 0
vt 0.001201516 19.68444 0
vt -39.37008 19.68444 0
vt -3.214056 19.68444 0
vt 0.001201516 19.68444 0
vt -39.37008 19.68444 0
vt -36.15482 19.68444 0
vt -6.097694 20.47263 0
vt -3.214056 20.47263 0
vt -6.097694 20.07854 0
vt -3.214056 19.68444 0
vt -36.15482 19.68444 0
vt -33.27359 20.07854 0
vt -36.15482 20.47263 0
vt -33.27359 20.47263 0
vt 0.001201516 19.68444 0
vt 0.001201516 15.48634 0
vt -39.37008 19.68444 0
vt -39.37008 15.48634 0
vt 39.37008 15.48634 0
vt 37.402 15.48634 0
vt 39.37008 19.68444 0
vt 1.969285 15.48634 0
vt 0.001201516 15.48634 0
vt 0.001201516 19.68444 0
vt 36.15482 19.68444 0
vt 39.37008 19.68444 0
vt 0.001201516 19.68444 0
vt 3.214056 19.68444 0
vt 33.27359 20.47263 0
vt 36.15482 20.47263 0
vt 33.27359 20.07854 0
vt 36.15482 19.68444 0
vt 3.214056 19.68444 0
vt 6.097694 20.07854 0
vt 3.214056 20.47263 0
vt 6.097694 20.47263 0
vt 0.001201516 15.48634 0
vt 0.001201516 19.68444 0
vt 39.37008 15.48634 0
vt 39.37008 19.68444 0
vt 0.001201516 39.37008 0
vt 0.001201516 0.001201516 0
vt -39.37008 39.37008 0
vt -1.969285 0.001201516 0
vt -37.402 0.001201516 0
vt -39.37008 0.001201516 0
vn 0.01587102 0.999874 5.683625E-14
vn 0.01587102 0.999874 5.683625E-14
vn 0.01587102 0.999874 5.683625E-14
vn 0.01587102 0.999874 5.683625E-14
vn 0.01587102 0.999874 5.683625E-14
vn 0.01587102 0.999874 5.683625E-14
vn 0.01587102 0.999874 5.683625E-14
vn 0.01587102 0.999874 5.683625E-14
vn 0.01587302 0.01587302 0.999748
vn 0.01587302 0.01587302 0.999748
vn 0.01587302 0.01587302 0.999748
vn 0.01587302 0.01587302 0.999748
vn 0.01587102 0.999874 5.683625E-14
vn 0.01587102 0.999874 5.683625E-14
vn 0.01587102 0.999874 5.683625E-14
vn 0.01587102 0.999874 5.683625E-14
vn 0.01587302 0.01587302 0.999748
vn 0.01587302 0.01587302 0.999748
vn 0.01587302 0.01587302 0.999748
vn 0.01587302 0.01587302 0.999748
vn 0.01587302 0.01587302 0.999748
vn 0.01587302 0.01587302 0.999748
vn 0.01587302 0.01587302 0.999748
vn 0.01587302 0.01587302 0.999748
vn -0.999874 0.01587102 9.021695E-16
vn -0.999874 0.01587102 9.021695E-16
vn -0.999874 0.01587102 9.021695E-16
vn -0.999874 0.01587102 9.021695E-16
vn 0.01587302 0.01587302 -0.999748
vn 0.01587302 0.01587302 -0.999748
vn 0.01587302 0.01587302 -0.999748
vn 0.01587302 0.01587302 -0.999748
vn 0.01587302 0.01587302 -0.999748
vn 0.01587302 0.01587302 -0.999748
vn 0.01587102 0.999874 5.683625E-14
vn 0.01587102 0.999874 5.683625E-14
vn 0.01587102 0.999874 5.683625E-14
vn 0.01587102 0.999874 5.683625E-14
vn 0.01587302 0.01587302 -0.999748
vn 0.01587302 0.01587302 -0.999748
vn 0.01587302 0.01587302 -0.999748
vn 0.01587302 0.01587302 -0.999748
vn 0.01587302 0.01587302 -0.999748
vn 0.01587302 0.01587302 -0.999748
vn 0.01587302 0.01587302 -0.999748
vn 0.01587302 0.01587302 -0.999748
vn 0.999874 0.01587102 9.021559E-16
vn 0.999874 0.01587102 9.021559E-16
vn 0.999874 0.01587102 9.021559E-16
vn 0.999874 0.01587102 9.021559E-16
vn 0.01587102 -0.999874 -5.683625E-14
vn 0.01587102 -0.999874 -5.683625E-14
vn 0.01587102 -0.999874 -5.683625E-14
vn 0.01587102 -0.999874 -5.683625E-14
vn 0.01587102 -0.999874 -5.683625E-14
vn 0.01587102 -0.999874 -5.683625E-14
vn 0.01587102 0.999874 5.683625E-14
vn 0.01587102 0.999874 5.683625E-14
vn 0.01587102 0.999874 5.683625E-14
vn 0.01587102 0.999874 5.683625E-14
vn 0.01587102 0.999874 5.683625E-14
vn 0.01587102 0.999874 5.683625E-14
vn 0.01587102 0.999874 5.683625E-14
vn 0.01587102 0.999874 5.683625E-14
vn 0.01587302 0.01587302 0.999748
vn 0.01587302 0.01587302 0.999748
vn 0.01587302 0.01587302 0.999748
vn 0.01587302 0.01587302 0.999748
vn 0.01587102 0.999874 5.683625E-14
vn 0.01587102 0.999874 5.683625E-14
vn 0.01587102 0.999874 5.683625E-14
vn 0.01587102 0.999874 5.683625E-14
vn 0.01587302 0.01587302 0.999748
vn 0.01587302 0.01587302 0.999748
vn 0.01587302 0.01587302 0.999748
vn 0.01587302 0.01587302 0.999748
vn 0.01587302 0.01587302 0.999748
vn 0.01587302 0.01587302 0.999748
vn 0.01587302 0.01587302 0.999748
vn 0.01587302 0.01587302 0.999748
vn -0.999874 0.01587102 9.021695E-16
vn -0.999874 0.01587102 9.021695E-16
vn -0.999874 0.01587102 9.021695E-16
vn -0.999874 0.01587102 9.021695E-16
vn 0.01587302 0.01587302 -0.999748
vn 0.01587302 0.01587302 -0.999748
vn 0.01587302 0.01587302 -0.999748
vn 0.01587302 0.01587302 -0.999748
vn 0.01587302 0.01587302 -0.999748
vn 0.01587302 0.01587302 -0.999748
vn 0.01587102 0.999874 5.683625E-14
vn 0.01587102 0.999874 5.683625E-14
vn 0.01587102 0.999874 5.683625E-14
vn 0.01587102 0.999874 5.683625E-14
vn 0.01587302 0.01587302 -0.999748
vn 0.01587302 0.01587302 -0.999748
vn 0.01587302 0.01587302 -0.999748
vn 0.01587302 0.01587302 -0.999748
vn 0.01587302 0.01587302 -0.999748
vn 0.01587302 0.01587302 -0.999748
vn 0.01587302 0.01587302 -0.999748
vn 0.01587302 0.01587302 -0.999748
vn 0.999874 0.01587102 9.021559E-16
vn 0.999874 0.01587102 9.021559E-16
vn 0.999874 0.01587102 9.021559E-16
vn 0.999874 0.01587102 9.021559E-16
vn 0.01587102 -0.999874 -5.683625E-14
vn 0.01587102 -0.999874 -5.683625E-14
vn 0.01587102 -0.999874 -5.683625E-14
vn 0.01587102 -0.999874 -5.683625E-14
vn 0.01587102 -0.999874 -5.683625E-14
vn 0.01587102 -0.999874 -5.683625E-14
vn 0 1 0
vn 0 1 0
vn 0 1 0
vn 0 1 0
vn 0 1 0
vn 0 1 0
vn 0 1 0
vn 0 1 0
vn 0 1 0
vn 0 1 0
vn 0 1 0
vn 0 1 0
vn 0 1 0
vn 0 1 0
vn 0 1 0
vn 0 1 0
vn 0 1 0
vn 0 1 0
vn 0 1 0
vn 0 1 0
vn 0 1 0
vn 0 1 0
vn 0 1 0
vn 0 1 0
vn 0 1 0
vn 0 1 0
vn 0 1 0
vn 0 1 0
vn 0 1 0
vn 0 1 0
vn 0 1 0
vn 0 1 0
vn 0 1 0
vn 0 1 0
vn 0 1 0
vn 0 1 0
vn 0 1 0
vn 0 1 0
vn 0 1 0
vn 0 1 0
vn 0 0 -1
vn 0 0 -1
vn 0 0 -1
vn 0 0 -1
vn 0 0 -1
vn 0 0 -1
vn 0 0 -1
vn 0 0 -1
vn 0 0 -1
vn 0 0 -1
vn 0 0 -1
vn 0 0 -1
vn 1 0 0
vn 1 0 0
vn 1 0 0
vn 1 0 0
vn 1 0 0
vn 1 0 0
vn 1 0 0
vn 1 0 0
vn 1 0 0
vn 1 0 0
vn 1 0 0
vn 1 0 0
vn -0.1305262 0 0.9914449
vn -0.06540318 0 0.9978589
vn -0.1305262 0 0.9914449
vn -0.06540318 0 0.9978589
vn -0.258819 0 0.9659258
vn -0.1305262 0 0.9914449
vn -0.258819 0 0.9659258
vn -0.1305262 0 0.9914449
vn -0.3826834 0 0.9238795
vn -0.258819 0 0.9659258
vn -0.3826834 0 0.9238795
vn -0.258819 0 0.9659258
vn -0.5 0 0.8660254
vn -0.3826834 0 0.9238795
vn -0.5 0 0.8660254
vn -0.3826834 0 0.9238795
vn -0.6087614 0 0.7933533
vn -0.5 0 0.8660254
vn -0.6087614 0 0.7933533
vn -0.5 0 0.8660254
vn -0.7071068 0 0.7071068
vn -0.6087614 0 0.7933533
vn -0.7071068 0 0.7071068
vn -0.6087614 0 0.7933533
vn -0.7933533 0 0.6087614
vn -0.7933533 0 0.6087614
vn -0.7071068 0 0.7071068
vn -0.7071068 0 0.7071068
vn -0.8660254 0 0.5
vn -0.8660254 0 0.5
vn -0.7933533 0 0.6087614
vn -0.7933533 0 0.6087614
vn -0.9238795 0 0.3826834
vn -0.9238795 0 0.3826834
vn -0.8660254 0 0.5
vn -0.8660254 0 0.5
vn -0.9659258 0 0.258819
vn -0.9659258 0 0.258819
vn -0.9238795 0 0.3826834
vn -0.9238795 0 0.3826834
vn -0.9914449 0 0.1305262
vn -0.9914449 0 0.1305262
vn -0.9659258 0 0.258819
vn -0.9659258 0 0.258819
vn -0.9978589 0 0.06540314
vn -0.9978589 0 0.06540314
vn -0.9914449 0 0.1305262
vn -0.9914449 0 0.1305262
vn 0 -1 0
vn 0 -1 0
vn 0 -1 0
vn 0 -1 0
vn 0 -1 0
vn 0 -1 0
vn 0 -1 0
vn 0 -1 0
vn 0 -1 0
vn 0 -1 0
vn 0 -1 0
vn 0 -1 0
vn 0 -1 0
vn 0 -1 0
vn 0 1 0
vn 0 1 0
vn 0 1 0
vn 0 1 0
vn 0 1 0
vn 0 1 0
vn 0 1 0
vn 0 1 0
vn 0 1 0
vn 0 1 0
vn 0 1 0
vn 0 1 0
vn 0 1 0
vn 0 1 0
vn 0 1 0
vn 0 1 0
vn 0 1 0
vn 0 1 0
vn 0 1 0
vn 0 1 0
vn 0 1 0
vn 0 1 0
vn 0 1 0
vn 0 1 0
vn 0 1 0
vn 0 1 0
vn 0 1 0
vn 0 1 0
vn 0 1 0
vn 0 1 0
vn 0 1 0
vn 0 1 0
vn 0 1 0
vn 0 1 0
vn 0 1 0
vn 0 1 0
vn 0 1 0
vn 0 1 0
vn 0 1 0
vn 0 1 0
vn -1 0 8.34465E-07
vn -1 0 8.34465E-07
vn -1 0 8.34465E-07
vn -1 0 8.34465E-07
vn -1 0 8.34465E-07
vn -1 0 8.34465E-07
vn -1 0 8.34465E-07
vn -1 0 8.34465E-07
vn -1 0 8.34465E-07
vn -1 0 8.34465E-07
vn -1 0 8.34465E-07
vn -1 0 8.34465E-07
vn -8.34465E-07 0 -1
vn -8.34465E-07 0 -1
vn -8.34465E-07 0 -1
vn -8.34465E-07 0 -1
vn -8.34465E-07 0 -1
vn -8.34465E-07 0 -1
vn -8.34465E-07 0 -1
vn -8.34465E-07 0 -1
vn -8.34465E-07 0 -1
vn -8.34465E-07 0 -1
vn -8.34465E-07 0 -1
vn -8.34465E-07 0 -1
vn 0.991445 0 0.1305254
vn 0.997859 0 0.06540234
vn 0.991445 0 0.1305254
vn 0.997859 0 0.06540234
vn 0.9659261 0 0.2588182
vn 0.991445 0 0.1305254
vn 0.9659261 0 0.2588182
vn 0.991445 0 0.1305254
vn 0.9238798 0 0.3826826
vn 0.9659261 0 0.2588182
vn 0.9238798 0 0.3826826
vn 0.9659261 0 0.2588182
vn 0.8660259 0 0.4999993
vn 0.9238798 0 0.3826826
vn 0.8660259 0 0.4999993
vn 0.9238798 0 0.3826826
vn 0.7933539 0 0.6087608
vn 0.8660259 0 0.4999993
vn 0.7933539 0 0.6087608
vn 0.8660259 0 0.4999993
vn 0.7071074 0 0.7071062
vn 0.7933539 0 0.6087608
vn 0.7071074 0 0.7071062
vn 0.7933539 0 0.6087608
vn 0.6087621 0 0.7933528
vn 0.6087621 0 0.7933528
vn 0.7071074 0 0.7071062
vn 0.7071074 0 0.7071062
vn 0.5000007 0 0.866025
vn 0.5000007 0 0.866025
vn 0.6087621 0 0.7933528
vn 0.6087621 0 0.7933528
vn 0.3826842 0 0.9238792
vn 0.3826842 0 0.9238792
vn 0.5000007 0 0.866025
vn 0.5000007 0 0.866025
vn 0.2588198 0 0.9659256
vn 0.2588198 0 0.9659256
vn 0.3826842 0 0.9238792
vn 0.3826842 0 0.9238792
vn 0.130527 0 0.9914448
vn 0.130527 0 0.9914448
vn 0.2588198 0 0.9659256
vn 0.2588198 0 0.9659256
vn 0.06540398 0 0.9978589
vn 0.06540398 0 0.9978589
vn 0.130527 0 0.9914448
vn 0.130527 0 0.9914448
vn 0 -1 0
vn 0 -1 0
vn 0 -1 0
vn 0 -1 0
vn 0 -1 0
vn 0 -1 0
vn 0 -1 0
vn 0 -1 0
vn 0 -1 0
vn 0 -1 0
vn 0 -1 0
vn 0 -1 0
vn 0 -1 0
vn 0 -1 0
vn -0.999874 0.01587102 1.549525E-06
vn -0.999874 0.01587102 1.549525E-06
vn -0.999874 0.01587102 1.549525E-06
vn 0.999874 0.01587102 -1.549525E-06
vn 0.999874 0.01587102 -1.549525E-06
vn 0.999874 0.01587102 -1.549525E-06
vn -0.01587263 0.968254 0.2494641
vn -0.01587263 0.968254 0.2494641
vn -0.01587263 0.968254 0.2494641
vn -0.01587263 0.968254 0.2494641
vn -0.01587263 0.968254 0.2494641
vn -0.01587263 0.968254 0.2494641
vn -0.01587263 0.968254 0.2494641
vn -0.01587263 0.968254 0.2494641
vn -0.01587457 0.01587302 -0.999748
vn -0.01587457 0.01587302 -0.999748
vn -0.01587457 0.01587302 -0.999748
vn -0.01587457 0.01587302 -0.999748
vn -0.01587102 0.999874 2.459564E-08
vn -0.01587102 0.999874 2.459564E-08
vn -0.01587102 0.999874 2.459564E-08
vn -0.01587102 0.999874 2.459564E-08
vn -0.01587457 0.01587302 -0.999748
vn -0.01587457 0.01587302 -0.999748
vn -0.01587457 0.01587302 -0.999748
vn -0.01587457 0.01587302 -0.999748
vn -0.01587457 0.01587302 -0.999748
vn -0.01587457 0.01587302 -0.999748
vn -0.01587457 0.01587302 -0.999748
vn -0.01587457 0.01587302 -0.999748
vn -0.01587102 0.999874 2.45957E-08
vn -0.01587102 0.999874 2.45957E-08
vn -0.01587102 0.999874 2.45957E-08
vn -0.01587102 0.999874 2.45957E-08
vn -0.01587102 0.999874 2.45957E-08
vn -0.01587102 0.999874 2.45957E-08
vn -0.01587102 0.999874 2.45957E-08
vn -0.01587102 0.999874 2.45957E-08
vn -0.01587457 0.01587302 -0.999748
vn -0.01587457 0.01587302 -0.999748
vn -0.01587457 0.01587302 -0.999748
vn -0.01587457 0.01587302 -0.999748
vn -0.01587102 0.999874 2.45957E-08
vn -0.01587102 0.999874 2.45957E-08
vn -0.01587102 0.999874 2.45957E-08
vn -0.01587102 0.999874 2.45957E-08
vn -0.01587457 0.01587302 -0.999748
vn -0.01587457 0.01587302 -0.999748
vn -0.01587457 0.01587302 -0.999748
vn -0.01587457 0.01587302 -0.999748
vn -0.01587457 0.01587302 -0.999748
vn -0.01587457 0.01587302 -0.999748
vn -0.01587457 0.01587302 -0.999748
vn -0.01587457 0.01587302 -0.999748
vn 0.999874 0.01587102 -1.549525E-06
vn 0.999874 0.01587102 -1.549525E-06
vn 0.999874 0.01587102 -1.549525E-06
vn 0.999874 0.01587102 -1.549525E-06
vn -0.01587147 0.01587302 0.999748
vn -0.01587147 0.01587302 0.999748
vn -0.01587147 0.01587302 0.999748
vn -0.01587147 0.01587302 0.999748
vn -0.01587147 0.01587302 0.999748
vn -0.01587147 0.01587302 0.999748
vn -0.01587102 0.999874 2.45957E-08
vn -0.01587102 0.999874 2.45957E-08
vn -0.01587102 0.999874 2.45957E-08
vn -0.01587102 0.999874 2.45957E-08
vn -0.01587147 0.01587302 0.999748
vn -0.01587147 0.01587302 0.999748
vn -0.01587147 0.01587302 0.999748
vn -0.01587147 0.01587302 0.999748
vn -0.01587147 0.01587302 0.999748
vn -0.01587147 0.01587302 0.999748
vn -0.01587147 0.01587302 0.999748
vn -0.01587147 0.01587302 0.999748
vn -0.999874 0.01587102 1.549525E-06
vn -0.999874 0.01587102 1.549525E-06
vn -0.999874 0.01587102 1.549525E-06
vn -0.999874 0.01587102 1.549525E-06
vn -0.01587102 -0.999874 2.459558E-08
vn -0.01587102 -0.999874 2.459558E-08
vn -0.01587102 -0.999874 2.459558E-08
vn -0.01587102 -0.999874 2.459558E-08
vn -0.01587102 -0.999874 2.459558E-08
vn -0.01587102 -0.999874 2.459558E-08

g [TargetMesh]
f 1/1 2/2 3/3
f 4/4 3/3 2/2
f 5/5 6/6 7/7
f 8/8 7/7 6/6
f 9/9 10/10 11/11
f 12/12 11/11 10/10
f 13/13 14/14 15/15
f 16/16 13/13 15/15
f 17/17 18/18 19/19
f 18/18 20/20 19/19
f 21/21 19/19 20/20
f 19/19 21/21 22/22
f 23/23 22/22 21/21
f 24/24 22/22 23/23
f 25/25 26/26 27/27
f 28/28 27/27 26/26
f 29/29 30/30 31/31
f 32/32 31/31 30/30
f 33/33 31/31 32/32
f 34/34 31/31 33/33
f 35/35 36/36 37/37
f 38/38 35/35 37/37
f 39/39 40/40 41/41
f 40/40 42/42 41/41
f 43/43 41/41 42/42
f 41/41 43/43 44/44
f 45/45 44/44 43/43
f 46/46 44/44 45/45
f 47/47 48/48 49/49
f 50/50 49/49 48/48
f 51/51 52/52 53/53
f 54/54 53/53 52/52
f 55/55 53/53 54/54
f 56/56 53/53 55/55
f 57/57 58/58 59/59
f 60/60 59/59 58/58
f 61/61 62/62 63/63
f 64/64 63/63 62/62
f 65/65 66/66 67/67
f 68/68 67/67 66/66
f 69/69 70/70 71/71
f 72/72 69/69 71/71
f 73/73 74/74 75/75
f 74/74 76/76 75/75
f 77/77 75/75 76/76
f 75/75 77/77 78/78
f 79/79 78/78 77/77
f 80/80 78/78 79/79
f 81/81 82/82 83/83
f 84/84 83/83 82/82
f 85/85 86/86 87/87
f 88/88 87/87 86/86
f 89/89 87/87 88/88
f 90/90 87/87 89/89
f 91/91 92/92 93/93
f 94/94 91/91 93/93
f 95/95 96/96 97/97
f 96/96 98/98 97/97
f 99/99 97/97 98/98
f 97/97 99/99 100/100
f 101/101 100/100 99/99
f 102/102 100/100 101/101
f 103/103 104/104 105/105
f 106/106 105/105 104/104
f 107/107 108/108 109/109
f 110/110 109/109 108/108
f 111/111 109/109 110/110
f 112/112 109/109 111/111
f 113/113 114/114 115/115
f 116/116 115/115 114/114
f 117/117 115/115 116/116
f 118/118 115/115 117/117
f 119/119 115/115 118/118
f 120/120 115/115 119/119
f 121/121 115/115 120/120
f 122/122 115/115 121/121
f 123/123 115/115 122/122
f 124/124 115/115 123/123
f 125/125 115/115 124/124
f 126/126 115/115 125/125
f 127/127 128/128 129/129
f 130/130 129/129 128/128
f 131/131 129/129 130/130
f 132/132 129/129 131/131
f 133/133 132/132 131/131
f 134/134 132/132 133/133
f 135/135 134/134 133/133
f 136/136 135/135 133/133
f 137/137 135/135 136/136
f 138/138 137/137 136/136
f 139/139 138/138 136/136
f 140/140 138/138 139/139
f 141/141 140/140 139/139
f 142/142 140/140 141/141
f 143/143 142/142 141/141
f 144/144 142/142 143/143
f 145/145 144/144 143/143
f 146/146 144/144 145/145
f 147/147 146/146 145/145
f 148/148 146/146 147/147
f 149/149 148/148 147/147
f 150/150 148/148 149/149
f 151/151 150/150 149/149
f 152/152 150/150 151/151
f 153/153 154/154 155/155
f 156/156 155/155 154/154
f 155/155 156/156 157/157
f 157/157 156/156 158/158
f 156/156 159/159 158/158
f 160/160 157/157 158/158
f 161/161 157/157 160/160
f 158/158 159/159 162/162
f 158/158 162/162 163/163
f 164/164 162/162 159/159
f 165/165 166/166 167/167
f 168/168 167/167 166/166
f 169/169 167/167 168/168
f 170/170 167/167 169/169
f 170/170 169/169 171/171
f 172/172 167/167 170/170
f 173/173 167/167 172/172
f 174/174 167/167 173/173
f 175/175 167/167 174/174
f 174/174 173/173 176/176
f 177/177 178/178 179/179
f 180/180 179/179 178/178
f 181/181 182/182 183/183
f 184/184 183/183 182/182
f 185/185 186/186 187/187
f 188/188 187/187 186/186
f 189/189 190/190 191/191
f 192/192 191/191 190/190
f 193/193 194/194 195/195
f 196/196 195/195 194/194
f 197/197 198/198 199/199
f 200/200 199/199 198/198
f 201/201 202/202 203/203
f 204/204 203/203 202/202
f 205/205 206/206 207/207
f 208/208 207/207 206/206
f 209/209 210/210 211/211
f 212/212 211/211 210/210
f 213/213 214/214 215/215
f 216/216 215/215 214/214
f 217/217 218/218 219/219
f 220/220 219/219 218/218
f 221/221 222/222 223/223
f 224/224 223/223 222/222
f 225/225 226/226 227/227
f 228/228 227/227 226/226
f 229/229 228/228 226/226
f 230/230 229/229 226/226
f 231/231 230/230 226/226
f 232/232 231/231 226/226
f 233/233 232/232 226/226
f 234/234 233/233 226/226
f 235/235 234/234 226/226
f 236/236 235/235 226/226
f 237/237 236/236 226/226
f 238/238 237/237 226/226
f 239/239 240/240 241/241
f 242/242 241/241 240/240
f 243/243 241/241 242/242
f 244/244 241/241 243/243
f 245/245 241/241 244/244
f 246/246 241/241 245/245
f 247/247 241/241 246/246
f 248/248 241/241 247/247
f 249/249 241/241 248/248
f 250/250 241/241 249/249
f 251/251 241/241 250/250
f 252/252 241/241 251/251
f 253/253 254/254 255/255
f 256/256 255/255 254/254
f 257/257 255/255 256/256
f 258/258 255/255 257/257
f 259/259 258/258 257/257
f 260/260 258/258 259/259
f 261/261 260/260 259/259
f 262/262 261/261 259/259
f 263/263 261/261 262/262
f 264/264 263/263 262/262
f 265/265 264/264 262/262
f 266/266 264/264 265/265
f 267/267 266/266 265/265
f 268/268 266/266 267/267
f 269/269 268/268 267/267
f 270/270 268/268 269/269
f 271/271 270/270 269/269
f 272/272 270/270 271/271
f 273/273 272/272 271/271
f 274/274 272/272 273/273
f 275/275 274/274 273/273
f 276/276 274/274 275/275
f 277/277 276/276 275/275
f 278/278 276/276 277/277
f 279/279 280/280 281/281
f 282/282 281/281 280/280
f 281/281 282/282 283/283
f 283/283 282/282 284/284
f 282/282 285/285 284/284
f 286/286 283/283 284/284
f 287/287 283/283 286/286
f 284/284 285/285 288/288
f 284/284 288/288 289/289
f 290/290 288/288 285/285
f 291/291 292/292 293/293
f 294/294 293/293 292/292
f 295/295 293/293 294/294
f 296/296 293/293 295/295
f 296/296 295/295 297/297
f 298/298 293/293 296/296
f 299/299 293/293 298/298
f 300/300 293/293 299/299
f 301/301 293/293 300/300
f 300/300 299/299 302/302
f 303/303 304/304 305/305
f 306/306 305/305 304/304
f 307/307 308/308 309/309
f 310/310 309/309 308/308
f 311/311 312/312 313/313
f 314/314 313/313 312/312
f 315/315 316/316 317/317
f 318/318 317/317 316/316
f 319/319 320/320 321/321
f 322/322 321/321 320/320
f 323/323 324/324 325/325
f 326/326 325/325 324/324
f 327/327 328/328 329/329
f 330/330 329/329 328/328
f 331/331 332/332 333/333
f 334/334 333/333 332/332
f 335/335 336/336 337/337
f 338/338 337/337 336/336
f 339/339 340/340 341/341
f 342/342 341/341 340/340
f 343/343 344/344 345/345
f 346/346 345/345 344/344
f 347/347 348/348 349/349
f 350/350 349/349 348/348
f 351/351 352/352 353/353
f 354/354 353/353 352/352
f 355/355 354/354 352/352
f 356/356 355/355 352/352
f 357/357 356/356 352/352
f 358/358 357/357 352/352
f 359/359 358/358 352/352
f 360/360 359/359 352/352
f 361/361 360/360 352/352
f 362/362 361/361 352/352
f 363/363 362/362 352/352
f 364/364 363/363 352/352
f 365/365 366/366 367/367
f 368/368 369/369 370/370
f 371/371 372/372 373/373
f 374/374 373/373 372/372
f 375/375 376/376 377/377
f 378/378 377/377 376/376
f 379/379 380/380 381/381
f 382/382 381/381 380/380
f 383/383 384/384 385/385
f 386/386 383/383 385/385
f 387/387 388/388 389/389
f 388/388 390/390 389/389
f 391/391 389/389 390/390
f 389/389 391/391 392/392
f 393/393 392/392 391/391
f 394/394 392/392 393/393
f 395/395 396/396 397/397
f 398/398 397/397 396/396
f 399/399 400/400 401/401
f 402/402 401/401 400/400
f 403/403 404/404 405/405
f 406/406 405/405 404/404
f 407/407 408/408 409/409
f 410/410 407/407 409/409
f 411/411 412/412 413/413
f 412/412 414/414 413/413
f 415/415 413/413 414/414
f 413/413 415/415 416/416
f 417/417 416/416 415/415
f 418/418 416/416 417/417
f 419/419 420/420 421/421
f 422/422 421/421 420/420
f 423/423 424/424 425/425
f 426/426 425/425 424/424
f 427/427 425/425 426/426
f 428/428 425/425 427/427
f 429/429 430/430 431/431
f 432/432 429/429 431/431
f 433/433 434/434 435/435
f 434/434 436/436 435/435
f 437/437 435/435 436/436
f 435/435 437/437 438/438
f 439/439 438/438 437/437
f 440/440 438/438 439/439
f 441/441 442/442 443/443
f 444/444 443/443 442/442
f 445/445 446/446 447/447
f 448/448 447/447 446/446
f 449/449 447/447 448/448
f 450/450 447/447 449/449
